<svg width="24" height="24" viewBox="0 0 24 24" fill="none" xmlns="http://www.w3.org/2000/svg">
<g clip-path="url(#clip0_14_882)">
<path d="M22.9045 6.9274C22.7725 6.7954 22.5599 6.7954 22.4277 6.9274C22.039 7.31605 21.55 7.5826 21.022 7.76592L16.235 2.98153C16.4183 2.45337 16.6823 1.96445 17.0735 1.57582C17.2055 1.44382 17.2055 1.23117 17.0735 1.09899C16.9415 0.967002 16.7288 0.967002 16.5967 1.09899C14.7607 2.935 15.1909 6.37976 15.4379 7.69035C14.1275 7.44341 10.6827 7.01314 8.84652 8.84914C7.01052 10.6851 7.4408 14.1251 7.68773 15.4379C6.37496 15.1909 2.93259 14.7607 1.09899 16.5967C0.967002 16.7287 0.967002 16.9413 1.09899 17.0735C1.23099 17.2055 1.44365 17.2055 1.57582 17.0735C1.96702 16.6823 2.45595 16.4183 2.98411 16.235L7.76631 21.0172C7.58299 21.5477 7.31642 22.0366 6.92779 22.4255C6.7958 22.5575 6.7958 22.7701 6.92779 22.9023C6.99379 22.9683 7.0794 23 7.16739 23C7.253 23 7.341 22.9683 7.407 22.9023C9.243 21.0663 8.81529 17.6263 8.56579 16.3135C9.09137 16.4138 9.95941 16.5409 10.9276 16.5409C12.3773 16.5409 14.0545 16.2549 15.1546 15.1546C16.9906 13.3186 16.5603 9.87382 16.3134 8.56323C16.839 8.66351 17.707 8.79055 18.6775 8.79055C20.1272 8.79055 21.8045 8.50456 22.9046 7.40426C23.034 7.27244 23.034 7.05978 22.9046 6.92779L22.9045 6.9274ZM20.2689 7.96648C19.7286 8.07153 19.1711 8.11075 18.6406 8.1082L15.8928 5.3602C15.8904 4.83203 15.9294 4.27475 16.0345 3.73192L20.2689 7.96648ZM15.9391 6.3602L17.6408 8.06183C16.9759 8.00078 16.4354 7.9005 16.1591 7.84183C16.1005 7.56796 16.0004 7.02514 15.9391 6.3602L15.9391 6.3602ZM9.58005 9.10327C9.91993 8.83195 10.311 8.63138 10.7315 8.48713L15.5137 13.2693C15.3694 13.6899 15.1691 14.0811 14.8976 14.4208L9.58005 9.10327ZM11.4846 8.28417C12.0274 8.17912 12.5847 8.1399 13.1129 8.14246L15.8583 10.8879C15.8607 11.4161 15.8241 11.9734 15.7166 12.5162L11.4846 8.28417ZM14.1127 8.1914C14.7752 8.25245 15.3155 8.35273 15.5894 8.40901C15.648 8.68527 15.7483 9.22312 15.807 9.88566L14.1127 8.1914ZM9.10349 9.57992L14.4209 14.8974C14.081 15.1687 13.69 15.3692 13.2695 15.5159L8.48508 10.7315C8.63174 10.311 8.83229 9.91974 9.10362 9.57987L9.10349 9.57992ZM8.18909 14.1102L9.89071 15.8118C9.22581 15.7508 8.68538 15.6505 8.40907 15.5918C8.35041 15.318 8.24775 14.7777 8.18908 14.1102L8.18909 14.1102ZM8.1427 13.1104C8.14031 12.5822 8.17937 12.0249 8.28442 11.4821L12.5188 15.7165C11.9786 15.8215 11.4211 15.8608 10.8905 15.8582L8.1427 13.1104ZM8.06204 17.6354L6.36539 15.9388C7.02793 15.9998 7.56819 16.1001 7.84205 16.1564C7.90071 16.4327 8.00082 16.9729 8.06204 17.6355L8.06204 17.6354ZM3.7371 16.0317C4.27993 15.9267 4.83486 15.8875 5.36538 15.89L8.11085 18.6355C8.11323 19.1637 8.07657 19.7209 7.96913 20.2638L3.7371 16.0317Z" fill="white" stroke="white" stroke-width="0.2"/>
</g>
<defs>
<clipPath id="clip0_14_882">
<rect width="24" height="24" fill="white"/>
</clipPath>
</defs>
</svg>
